<?xml version="1.0" encoding="UTF-8" standalone="no"?><!DOCTYPE svg PUBLIC "-//W3C//DTD SVG 1.1//EN" "http://www.w3.org/Graphics/SVG/1.1/DTD/svg11.dtd"><svg width="100%" height="100%" viewBox="0 0 1200 1200" version="1.1" xmlns="http://www.w3.org/2000/svg" xmlns:xlink="http://www.w3.org/1999/xlink" xml:space="preserve" xmlns:serif="http://www.serif.com/" style="fill-rule:evenodd;clip-rule:evenodd;stroke-linejoin:round;stroke-miterlimit:1.41421;"><g><clipPath id="_clip1"><path d="M1088.7,1165.5l-977.4,0c-42.4,0 -76.7,-34.4 -76.7,-76.7l0,-977.5c0,-42.4 34.4,-76.7 76.7,-76.7l977.4,0c42.4,0 76.7,34.4 76.7,76.7l0,977.4c0.1,42.4 -34.3,76.8 -76.7,76.8Z"/></clipPath><g clip-path="url(#_clip1)"><path d="M573.6,1896.7l-661.5,-610.1l1292.4,-1401.6l661.5,610l-1292.4,1401.7Z" style="fill:url(#_Linear2);fill-rule:nonzero;"/><path d="M-66.9,1307.6l-577.2,-532.1l1292.5,-1401.6l577.1,532.1l-1292.4,1401.6Z" style="fill:url(#_Linear3);fill-rule:nonzero;"/><path d="M380.845,-212.719l-758.153,203.393l493.974,1841.3l758.153,-203.393l-493.974,-1841.3Z" style="fill:#c24411;fill-opacity:0.28;"/></g></g><path d="M600,251.459c-192.302,0 -348.541,156.239 -348.541,348.541c0,192.302 156.239,348.541 348.541,348.541c192.302,0 348.541,-156.239 348.541,-348.541c0,-10.321 -0.678,-20.231 -1.491,-29.823c-0.722,-8.55 -7.96,-15.202 -16.54,-15.202c-3.155,0 -6.245,0.899 -8.907,2.592c-9.142,5.833 -19.7,9.239 -31.152,9.239c-24.614,0 -45.329,-15.218 -53.876,-36.663c-2.51,-6.3 -8.639,-10.455 -15.42,-10.455c-2.754,0 -5.465,0.685 -7.888,1.994c-14.067,7.61 -30.106,11.929 -47.295,11.929c-55.195,0 -99.583,-44.388 -99.583,-99.583c0,-17.189 4.319,-33.228 11.929,-47.295c1.309,-2.423 1.994,-5.134 1.994,-7.888c0,-6.781 -4.155,-12.91 -10.455,-15.42c-21.445,-8.547 -36.663,-29.262 -36.663,-53.876c0,-11.452 3.406,-22.01 9.239,-31.152c1.693,-2.662 2.592,-5.752 2.592,-8.907c0,-8.58 -6.652,-15.818 -15.202,-16.54c-9.592,-0.813 -19.502,-1.491 -29.823,-1.491Zm215.763,0c-18.21,0 -33.194,14.985 -33.194,33.195c0,18.209 14.984,33.194 33.194,33.194c18.21,0 33.195,-14.985 33.195,-33.194c0,-18.21 -14.985,-33.195 -33.195,-33.195Zm-215.763,33.195c2.37,0 4.841,0.28 7.229,0.356c-2.498,8.244 -7.229,15.476 -7.229,24.539c0,32.149 18.883,57.804 44.151,74.039c-6.511,15.685 -10.957,32.456 -10.957,50.44c0,73.135 59.643,132.778 132.778,132.778c17.984,0 34.755,-4.446 50.44,-10.957c16.235,25.268 41.89,44.151 74.039,44.151c9.063,0 16.295,-4.731 24.539,-7.229c0.076,2.388 0.356,4.859 0.356,7.229c0,174.363 -140.983,315.346 -315.346,315.346c-174.363,0 -315.346,-140.983 -315.346,-315.346c0,-174.363 140.983,-315.346 315.346,-315.346Zm190.868,99.583c-13.658,0 -24.896,11.238 -24.896,24.895c0,13.658 11.238,24.896 24.896,24.896c13.657,0 24.895,-11.238 24.895,-24.896c0,-13.657 -11.238,-24.895 -24.895,-24.895Zm-248.958,49.791c-13.658,0 -24.896,11.239 -24.896,24.896c0,13.657 11.238,24.896 24.896,24.896c13.657,0 24.896,-11.239 24.896,-24.896c0,-13.657 -11.239,-24.896 -24.896,-24.896Zm390.034,0c-9.105,0 -16.598,7.492 -16.598,16.597c0,9.105 7.493,16.598 16.598,16.598c9.105,0 16.597,-7.493 16.597,-16.598c0,-9.105 -7.492,-16.597 -16.597,-16.597Zm-497.916,82.986c-27.315,0 -49.791,22.477 -49.791,49.792c0,27.314 22.476,49.791 49.791,49.791c27.315,0 49.792,-22.477 49.792,-49.791c0,-27.315 -22.477,-49.792 -49.792,-49.792Zm157.673,66.389c-13.657,0 -24.895,11.238 -24.895,24.896c0,13.657 11.238,24.895 24.895,24.895c13.658,0 24.896,-11.238 24.896,-24.895c0,-13.658 -11.238,-24.896 -24.896,-24.896Zm-124.478,116.18c-18.21,0 -33.195,14.985 -33.195,33.194c0,18.21 14.985,33.195 33.195,33.195c18.209,0 33.194,-14.985 33.194,-33.195c0,-18.209 -14.985,-33.194 -33.194,-33.194Zm224.062,16.597c-22.763,0 -41.493,18.731 -41.493,41.493c0,22.763 18.73,41.493 41.493,41.493c22.762,0 41.492,-18.73 41.492,-41.493c0,-22.762 -18.73,-41.493 -41.492,-41.493Z" style="fill:#fff;fill-rule:nonzero;"/><defs><linearGradient id="_Linear2" x1="0" y1="0" x2="1" y2="0" gradientUnits="userSpaceOnUse" gradientTransform="matrix(857.739,757.484,-757.484,857.739,426.674,482.499)"><stop offset="0" style="stop-color:#f77122;stop-opacity:1"/><stop offset="1" style="stop-color:#d6560a;stop-opacity:1"/></linearGradient><linearGradient id="_Linear3" x1="0" y1="0" x2="1" y2="0" gradientUnits="userSpaceOnUse" gradientTransform="matrix(-1625.28,923.96,-923.96,-1625.28,1128.99,-135.804)"><stop offset="0" style="stop-color:#d6560a;stop-opacity:1"/><stop offset="1" style="stop-color:#f77122;stop-opacity:1"/></linearGradient></defs></svg>